<?xml version="1.0" encoding="utf-8"?>
<!-- Generator: Adobe Illustrator 23.1.1, SVG Export Plug-In . SVG Version: 6.00 Build 0)  -->
<svg version="1.1" id="Layer_1" xmlns="http://www.w3.org/2000/svg" xmlns:xlink="http://www.w3.org/1999/xlink" x="0px" y="0px"
	 viewBox="0 0 290.9 130.5" style="enable-background:new 0 0 290.9 130.5;" xml:space="preserve" width="290.9" height="130.5">
<style type="text/css">
	.st0{fill:#FFE239;}
	.st1{fill:#FFB83B;}
	.st2{fill:#70D65B;}
	.st3{fill:#58B741;}
	.st4{fill:none;stroke:#373737;stroke-width:7.49;stroke-linecap:round;stroke-linejoin:round;}
	.st5{fill:#373737;}
</style>
<title>yellow-banana</title>
<g>
	<g id="Layer_1-2">
		<g id="Yellow_Banana">
			<path id="body_fill" class="st0" d="M129.8,126.5c-50-0.6-89.8-27.4-109.1-52.6C14.9,66.8,10.3,58.8,7,50.1l0,0
				C1.5,34.7,3.5,22.6,9.6,18.8c9.8-6.7,27.2,1.4,48.4,8.4c21.4,7.5,46.6,14.1,74.5,14.9c27.9,0.8,53.5-4.1,75.3-10.2
				c21.7-5.7,39.5-12.7,48.9-5.4c1.7,1.3,3.1,3.1,3.7,5.2c3.7,9.9-0.6,29.4-18.3,49.2C221.1,104.7,179.7,129,129.8,126.5z"/>
			<path id="body_shadow" class="st1" d="M260.3,31.7l-6.2,5.3c-3.8-6.3-51.3,32.9-115,27.6S25.2,21.5,7.1,50.1
				C1.5,34.7,3.5,22.6,9.6,18.8c9.8-6.7,27.2,1.4,48.4,8.4c21.4,7.5,46.6,14.1,74.5,14.9c27.9,0.8,53.5-4.1,75.3-10.2
				c21.7-5.7,39.5-12.7,48.9-5.4C258.3,27.8,259.6,29.6,260.3,31.7z"/>
			<polygon id="neck_fill" class="st2" points="287.2,21 260.5,47.7 254.1,37 245.9,23.4 269.8,3.7 			"/>
			<polygon id="neck_shadow" class="st3" points="254.1,37 245.9,23.4 269.8,3.7 277.4,11.2 			"/>
			<g id="outline">
				<path class="st4" d="M50.3,75c0,0,64.9,44.6,142,14.7"/>
				<path class="st4" d="M206.2,83.5c6.8-3.4,13.3-7.2,19.6-11.5"/>
				<path class="st4" d="M42.8,22.1l-3.5-1.2l-3.4-1.1c-1.1-0.3-2.2-0.7-3.3-1C22.9,16,15,15.1,9.5,18.9C3.5,22.6,1.4,34.8,7,50.2
					l0,0c3.3,8.6,7.9,16.7,13.7,23.8c19.4,25.2,59.2,52,109.1,52.6c49.9,2.4,91.3-21.8,112.2-45.7c10.6-11.8,16.3-23.5,18.5-33.1
					L254.1,37l-8.1-13.6c-2.6,0-5.1,0.2-7.7,0.7c-1,0.2-2.1,0.4-3.1,0.6c-3.7,0.8-7.7,1.8-12,3c-3,0.8-6.2,1.7-9.5,2.7l-2,0.6
					c-1.3,0.4-2.7,0.7-4,1.1c-8.8,2.5-18.3,4.8-28.3,6.6c-0.8,0.1-1.5,0.3-2.3,0.4c-2.3,0.4-4.7,0.8-7.1,1.1
					c-1.6,0.2-3.2,0.4-4.8,0.6c-4.8,0.6-9.8,1-14.8,1.3c-5.9,0.3-11.9,0.4-17.9,0.2c-5.2-0.2-10.4-0.5-15.4-1
					c-7.5-0.8-14.9-2-21.9-3.4l-2.3-0.5c-11.8-2.6-23.4-5.9-34.8-9.9"/>
				<polyline class="st4" points="260.5,47.8 260.5,47.8 287.2,21.1 277.3,11.3 269.8,3.7 245.9,23.4 245.9,23.4 				"/>
			</g>
			<g id="dots">
				<path class="st5" d="M206.3,43.8c-0.4,1.9,0.9,3.8,2.8,4.2c1.9,0.4,3.8-0.9,4.2-2.8s-0.9-3.8-2.8-4.2c-0.1,0-0.2,0-0.4-0.1
					C208.3,40.8,206.7,42.1,206.3,43.8z"/>
				<path class="st5" d="M218.8,51.8c-0.8,1.8,0.1,3.9,1.9,4.6c1.8,0.8,3.9-0.1,4.6-1.9c0.8-1.8-0.1-3.9-1.9-4.6
					c-0.2-0.1-0.4-0.2-0.6-0.2C221.1,49.4,219.4,50.2,218.8,51.8z"/>
				<path class="st5" d="M213.3,55.9c0-2-1.6-3.6-3.5-3.6c-2,0-3.6,1.6-3.6,3.5s1.6,3.6,3.5,3.6c0.1,0,0.1,0,0.2,0
					C211.8,59.3,213.3,57.8,213.3,55.9z"/>
				<path class="st5" d="M31.7,37.6c0,2,1.6,3.6,3.5,3.6c2,0,3.6-1.6,3.6-3.5c0-2-1.6-3.6-3.5-3.6c-0.2,0-0.4,0-0.7,0.1
					C32.9,34.4,31.7,35.9,31.7,37.6z"/>
				<path class="st5" d="M50.1,35c-1.6-1.1-3.8-0.7-4.9,1c-1.1,1.6-0.7,3.8,1,4.9c1.6,1.1,3.8,0.7,4.9-1c0.2-0.2,0.3-0.5,0.4-0.7
					C52,37.7,51.4,36,50.1,35z"/>
				<path class="st5" d="M43.6,44.8c-1.8-0.8-3.9,0.1-4.6,1.9s0.1,3.9,1.9,4.6c1.8,0.8,3.9-0.1,4.6-1.9c0.1-0.2,0.1-0.3,0.2-0.5
					C46.1,47.2,45.2,45.4,43.6,44.8z"/>
			</g>
		</g>
	</g>
</g>
</svg>
