<?xml version="1.0" encoding="utf-8"?>
<!-- Generator: Adobe Illustrator 23.1.1, SVG Export Plug-In . SVG Version: 6.00 Build 0)  -->
<svg version="1.1" id="Layer_1" xmlns="http://www.w3.org/2000/svg" xmlns:xlink="http://www.w3.org/1999/xlink" x="0px" y="0px"
	 viewBox="0 0 70 70" style="enable-background:new 0 0 70 70;" xml:space="preserve">
<style type="text/css">
	.st0{fill:#373737;}
</style>
<path class="st0" d="M31.8,31.8c0,0,1.2,0.5,1.5,0.1l2.3-2.3c-4.1-2.9-2.6-5.9-2.6-5.9c1-2.2,0.5-3.5,0.5-3.5
	c-0.4-2.1,0.9-0.7,0.9-0.7c1.2,1.5,0.7,3.5,0.7,3.5c-0.7,2.9,1,4.3,2.3,4.9l0.3-0.3c1-0.8,2-1,2.7-1c-2.7-3.4-4.7-7.7,0.5-13
	c1.5-1.5,3.3-2.2,5.1-2.2c0.2-0.5,1.1-2.4,3.7-3.5c0,0,1.5,0.8,2.4,5.2c1.4,0.8,2.7,1.8,3.9,2.9c1.2,1.2,2.2,2.5,2.9,3.9
	c4.4,0.8,5.2,2.3,5.2,2.3c-1.2,2.6-3,3.6-3.5,3.7c-0.1,1.9-0.8,3.6-2.3,5.1c-5.2,5.2-9.6,3.2-13,0.5c0.1,0.9-0.3,2.2-1.6,3.5
	L40,38.7c-0.4,0.4,0.2,1.7,0.3,1.7L70,70h0V0H0L31.8,31.8z"/>
</svg>
